<?xml version="1.0" standalone="no"?>
<!DOCTYPE svg PUBLIC "-//W3C//DTD SVG 20010904//EN"
 "http://www.w3.org/TR/2001/REC-SVG-20010904/DTD/svg10.dtd">
<svg version="1.0" xmlns="http://www.w3.org/2000/svg"
 width="700.000000pt" height="700.000000pt" viewBox="0 0 700.000000 700.000000"
 preserveAspectRatio="xMidYMid meet">
<metadata>
Created by potrace 1.11, written by Peter Selinger 2001-2013
</metadata>
<g transform="translate(0.000000,700.000000) scale(0.100000,-0.100000)"
fill="#000000" stroke="none">
<path d="M3449 6893 c-41 -16 -76 -65 -81 -112 -2 -20 -15 -46 -32 -65 -41
-44 -84 -140 -100 -225 -15 -78 -13 -248 3 -308 14 -49 18 -45 -79 -58 -107
-13 -131 -18 -234 -41 -242 -54 -485 -144 -668 -246 -37 -21 -70 -38 -73 -38
-10 0 -211 -134 -287 -192 -42 -32 -80 -58 -85 -58 -4 0 -21 21 -37 47 -93
147 -300 287 -434 294 -21 1 -52 13 -71 27 -62 46 -166 27 -200 -36 -27 -50
-16 -130 21 -163 12 -11 18 -31 18 -60 1 -56 27 -131 71 -204 42 -70 157 -189
221 -230 27 -17 48 -34 48 -39 0 -4 -22 -36 -48 -70 -192 -245 -344 -538 -441
-852 -33 -108 -76 -300 -86 -379 -7 -62 -16 -118 -21 -127 -3 -3 -19 -2 -37 3
-48 14 -211 19 -280 8 -91 -15 -171 -45 -227 -85 -28 -20 -50 -39 -50 -44 0
-4 -8 -7 -17 -6 -93 5 -166 -82 -142 -169 17 -59 57 -90 128 -98 13 -1 37 -15
54 -30 41 -38 110 -72 188 -93 78 -20 243 -25 322 -8 31 6 59 9 61 5 2 -3 7
-28 10 -56 14 -110 18 -134 37 -225 79 -388 259 -782 491 -1076 26 -34 48 -66
48 -72 0 -5 -17 -21 -37 -35 -49 -32 -141 -121 -180 -172 -63 -82 -103 -180
-109 -267 -1 -21 -10 -45 -20 -55 -39 -39 -50 -114 -24 -163 34 -64 131 -83
196 -38 23 15 60 29 89 33 83 10 124 26 222 88 52 33 163 142 198 195 15 23
31 42 35 42 5 0 39 -24 77 -54 235 -184 557 -348 863 -440 97 -29 291 -72 365
-81 28 -3 59 -7 70 -9 11 -3 28 -5 39 -5 16 -1 17 -6 11 -38 -12 -62 -14 -204
-4 -268 14 -91 48 -179 92 -237 23 -30 41 -65 43 -85 16 -165 254 -165 267 0
2 20 16 49 35 72 45 56 79 132 95 217 14 76 16 222 3 294 l-7 41 42 7 c24 4
64 9 89 12 137 16 387 82 562 148 223 85 512 246 654 365 49 41 77 61 85 61 3
0 19 -19 34 -42 63 -95 218 -220 323 -262 24 -9 69 -19 100 -23 33 -3 64 -13
76 -24 75 -71 198 -27 220 77 8 35 -10 89 -38 116 -8 9 -18 38 -20 65 -7 84
-43 169 -109 258 -39 52 -154 162 -189 181 -16 8 -28 18 -28 23 0 4 25 40 55
79 255 328 456 800 511 1197 8 60 16 130 17 143 0 9 15 10 61 5 209 -26 393
10 501 100 22 18 51 31 70 33 166 11 168 254 3 267 -21 2 -52 18 -85 43 -77
61 -191 95 -324 97 -57 1 -132 -2 -165 -6 l-61 -9 -8 68 c-18 174 -73 400
-142 584 -33 91 -118 284 -133 305 -4 6 -24 42 -45 80 -46 86 -140 226 -212
319 -29 37 -53 71 -53 75 0 3 20 19 45 35 57 36 161 137 201 196 50 73 85 156
91 217 3 33 14 68 24 81 32 41 42 88 29 130 -31 95 -122 125 -210 68 -19 -12
-52 -23 -72 -24 -59 -4 -124 -28 -200 -73 -77 -47 -199 -163 -238 -227 -14
-23 -28 -42 -33 -42 -4 0 -35 22 -70 49 -189 148 -425 280 -666 373 -105 41
-281 96 -336 105 -16 2 -55 11 -85 18 -30 8 -95 19 -145 26 -49 6 -97 13 -105
14 -8 2 -18 4 -22 4 -4 1 -5 11 -3 24 3 12 9 45 14 72 5 28 8 93 6 145 -7 148
-43 261 -107 330 -19 22 -33 48 -35 69 -10 93 -99 148 -184 114z m-84 -1148
c0 -69 -2 -125 -5 -126 -3 0 -12 -2 -20 -4 -8 -1 -45 -5 -81 -9 -364 -33 -786
-211 -1085 -457 l-72 -59 -91 91 c-50 50 -91 92 -91 94 0 6 152 127 225 177
300 209 611 332 1017 402 15 2 62 8 105 11 43 4 80 9 82 11 12 11 15 -17 16
-131z m370 120 c44 -4 104 -11 133 -16 28 -5 77 -13 107 -19 200 -34 488 -142
700 -263 137 -77 377 -249 399 -286 5 -7 -73 -92 -146 -159 l-25 -23 -44 36
c-24 20 -53 44 -64 53 -66 54 -256 172 -345 214 -246 115 -484 186 -689 204
-81 7 -108 11 -119 18 -4 2 -7 58 -6 123 2 138 2 135 12 130 4 -3 43 -8 87
-12z m-370 -1083 l0 -560 -65 -18 c-36 -9 -98 -35 -139 -56 -60 -31 -77 -36
-89 -26 -35 30 -772 772 -772 778 0 11 106 91 200 152 233 152 497 248 775
284 28 3 51 7 53 9 2 2 11 2 20 1 16 -3 17 -47 17 -564z m380 553 c124 -12
285 -53 428 -107 163 -63 393 -196 501 -290 l38 -33 -397 -398 c-219 -219
-401 -396 -404 -395 -3 2 -33 17 -66 34 -33 17 -85 39 -115 49 -30 10 -64 21
-75 25 -20 7 -20 15 -19 566 1 308 2 560 3 562 0 2 9 1 19 -2 9 -2 49 -7 87
-11z m-1926 -347 l91 -91 -44 -51 c-251 -296 -431 -717 -472 -1111 -5 -38 -9
-73 -10 -77 -1 -5 -2 -11 -3 -16 0 -4 -58 -7 -128 -7 l-128 0 1 30 c4 229 104
611 223 853 17 34 31 64 31 66 0 9 120 205 165 271 46 66 173 225 180 225 2 0
44 -41 94 -92z m3543 -6 c296 -374 476 -818 513 -1267 l7 -81 -121 1 c-66 0
-122 3 -125 5 -2 3 -7 32 -10 66 -4 33 -8 71 -11 85 -2 13 -6 41 -9 62 -49
324 -228 716 -455 993 l-51 61 83 85 c45 47 87 86 92 87 6 0 45 -43 87 -97z
m-366 -380 c100 -131 186 -287 249 -451 54 -143 102 -347 107 -456 l3 -60
-558 0 c-361 0 -561 4 -566 10 -4 6 -15 37 -25 70 -10 33 -35 92 -57 132 l-38
71 397 399 c391 392 397 398 415 378 9 -11 42 -53 73 -93z m-2520 -271 c203
-203 379 -380 392 -393 l23 -25 -40 -74 c-21 -41 -47 -101 -57 -134 -10 -33
-22 -62 -25 -65 -14 -10 -1114 -4 -1113 5 1 6 5 39 8 73 32 306 170 642 374
910 30 39 58 72 62 72 4 0 173 -166 376 -369z m1155 -388 c155 -46 283 -178
325 -336 17 -67 14 -189 -7 -253 -68 -204 -264 -340 -473 -328 -157 10 -280
82 -368 219 -52 80 -72 151 -71 255 1 99 23 172 78 255 53 79 162 164 231 180
11 2 33 8 49 13 47 15 179 11 236 -5z m-2247 -618 c3 -22 8 -65 12 -95 3 -30
7 -62 9 -70 2 -8 8 -44 15 -80 46 -258 184 -581 340 -801 29 -41 73 -98 97
-128 51 -62 57 -45 -66 -167 l-73 -73 -32 38 c-73 89 -100 123 -151 198 -30
43 -76 116 -102 163 -43 75 -63 116 -126 250 -54 116 -125 351 -152 510 -24
141 -39 276 -31 288 2 4 61 7 130 7 l125 1 5 -41z m1382 33 c6 -4 16 -31 23
-61 6 -30 31 -92 54 -137 l42 -84 -394 -393 c-216 -216 -395 -393 -396 -393
-8 0 -116 146 -162 219 -104 165 -215 436 -239 581 -3 14 -9 48 -14 75 -5 28
-13 75 -16 105 -4 30 -8 62 -9 70 -1 8 -1 17 0 20 5 8 1099 6 1111 -2z m2588
3 c16 -2 -11 -189 -49 -338 -69 -267 -192 -503 -385 -736 -6 -7 -800 778 -800
790 0 3 14 30 30 60 17 30 40 85 51 121 11 37 24 76 28 87 8 20 17 20 562 19
305 -1 558 -2 563 -3z m521 -56 c0 -52 -7 -107 -32 -265 -10 -63 -63 -258 -89
-327 -14 -38 -29 -81 -35 -98 -9 -32 -109 -236 -156 -320 -40 -72 -127 -199
-192 -280 -96 -119 -77 -116 -162 -32 -113 112 -109 94 -39 183 197 247 363
592 416 864 27 138 34 185 40 250 3 41 7 77 9 80 2 3 57 5 122 5 l118 0 0 -60z
m-2747 -450 c44 -29 149 -72 194 -79 16 -2 33 -7 36 -11 4 -4 7 -258 7 -566
l0 -559 -55 6 c-264 27 -572 135 -792 276 -97 62 -227 162 -225 172 5 17 772
784 785 785 7 0 29 -10 50 -24z m1196 -372 c381 -380 397 -397 378 -412 -105
-82 -139 -107 -217 -156 -96 -60 -220 -122 -319 -159 -146 -55 -361 -105 -471
-109 l-60 -2 0 560 0 559 57 14 c32 8 95 33 140 57 46 23 86 43 89 44 4 0 185
-178 403 -396z m-2154 -643 c241 -203 582 -365 900 -429 82 -17 91 -18 143
-25 26 -3 68 -9 95 -12 26 -3 49 -10 52 -15 3 -4 5 -61 5 -126 l0 -118 -30 1
c-55 2 -179 15 -225 24 -25 6 -56 12 -70 14 -351 61 -759 255 -1060 504 -30
26 -59 49 -63 52 -12 10 174 191 187 183 6 -4 36 -27 66 -53z m2833 -36 c49
-48 84 -90 80 -94 -303 -272 -712 -476 -1114 -555 -41 -8 -83 -16 -94 -19 -27
-5 -161 -19 -205 -20 l-35 -1 0 123 c0 68 2 125 5 127 3 2 34 6 70 10 283 29
521 99 769 227 156 80 321 190 399 266 13 12 26 22 30 22 4 0 47 -39 95 -86z"/>
</g>
</svg>
