<?xml version="1.0" ?><!DOCTYPE svg  PUBLIC '-//W3C//DTD SVG 1.1//EN'  'http://www.w3.org/Graphics/SVG/1.1/DTD/svg11.dtd'><svg enable-background="new 0 0 800 800" height="800px" id="Layer_1" version="1.1" viewBox="0 0 800 800" width="800px" xml:space="preserve" xmlns="http://www.w3.org/2000/svg" xmlns:xlink="http://www.w3.org/1999/xlink"><path d="M773.641,384.54h-3.484c-8.336-10.012-24.864-16.331-45.983-16.331c-8.007,0-15.339,0.915-21.826,2.588  c-6.11-61.93-30.904-118.446-68.641-163.843c6.318-3.571,12.667-8.36,18.585-14.282c8.402-8.402,14.943-18.009,18.393-27.05  c2.604-6.812,3.193-12.497,2.728-17.151l1.724-1.735c6.041-6.034,6.041-15.826,0-21.861c-6.038-6.039-15.822-6.039-21.86,0  l-1.847,1.859c-0.932-0.091-1.742-0.289-2.744-0.289c-12.56,0-28.019,7.945-41.358,21.266c-6.124,6.125-10.869,12.449-14.337,18.678  c-45.586-37.55-102.268-62.047-164.296-67.853c1.967-6.911,3.105-14.796,3.105-23.531c0-21.119-6.314-37.641-16.341-45.982v-2.662  c0-8.536-6.92-15.459-15.459-15.459c-8.523,0-15.459,6.923-15.459,15.459v2.662c-10.007,8.342-16.322,24.863-16.322,45.982  c0,8.748,1.138,16.642,3.123,23.557c-62.012,5.875-118.658,30.433-164.192,68.025c-3.502-6.293-8.282-12.686-14.459-18.875  c-13.337-13.321-28.797-21.275-41.359-21.275c-1,0-1.811,0.199-2.744,0.29l-1.846-1.855c-6.038-6.039-15.822-6.039-21.861,0  c-6.039,6.035-6.039,15.827,0,21.861l1.743,1.74c-0.465,4.654,0.121,10.339,2.709,17.142c3.451,9.045,9.99,18.657,18.393,27.063  c5.988,5.997,12.423,10.831,18.824,14.417c-37.752,45.456-62.512,102.055-68.552,164.063c-6.78-1.881-14.493-2.946-23-2.946  c-21.119,0-37.632,6.319-45.97,16.331h-2.666c-8.532,0-15.459,6.923-15.459,15.46c0,8.537,6.927,15.459,15.459,15.459h2.666  c8.338,10.011,24.851,16.331,45.97,16.331c8.454,0,16.133-1.052,22.879-2.911c5.729,62.051,30.144,118.762,67.637,164.382  c-5.866,3.486-11.716,7.999-17.202,13.484c-14.942,14.938-22.154,31.087-20.964,44.067l-2.468,2.463  c-6.039,6.034-6.039,15.826,0,21.86c3.02,3.021,6.971,4.53,10.922,4.53c3.968,0,7.919-1.509,10.938-4.53l2.434-2.441  c0.932,0.092,1.742,0.289,2.743,0.289c12.562,0,28.021-7.947,41.358-21.275c5.573-5.585,10.077-11.34,13.458-17.033  c45.448,37.65,101.991,62.313,163.916,68.323c-1.57,6.328-2.432,13.435-2.432,21.176c0,21.119,6.315,37.64,16.322,45.975v3.488  c0,8.536,6.937,15.46,15.459,15.46c8.54,0,15.459-6.924,15.459-15.46v-3.488c10.026-8.335,16.341-24.855,16.341-45.975  c0-7.73-0.863-14.825-2.435-21.148c62.013-5.941,118.643-30.576,164.143-68.234c3.503,5.82,7.937,11.613,13.251,16.913  c13.32,13.321,28.779,21.276,41.342,21.276c1.002,0,1.828-0.199,2.744-0.286l2.45,2.441c3.019,3.021,6.968,4.53,10.922,4.53  c3.952,0,7.919-1.509,10.938-4.53c6.04-6.034,6.04-15.826,0-21.86l-2.467-2.466c1.173-12.978-6.039-29.126-20.964-44.061  c-5.419-5.414-11.181-9.884-16.962-13.35c37.479-45.562,61.909-102.189,67.705-164.159c6.454,1.648,13.754,2.55,21.708,2.55  c21.119,0,37.647-6.32,45.983-16.331h3.484c8.54,0,15.459-6.923,15.459-15.459C789.1,391.463,782.181,384.54,773.641,384.54z   M603.823,581.955l-20.395-20.389c34.819-39.483,57.061-90.276,60.406-146.106h28.679  C669.114,479.192,643.717,537.159,603.823,581.955z M218.171,603.7l21.085-21.079c39.202,34.884,89.723,57.283,145.282,60.983  v29.456C320.801,669.436,262.86,643.825,218.171,603.7z M127.862,415.46h30.04c3.313,55.399,25.243,105.83,59.614,145.183  l-21.136,21.128C156.591,537.001,131.244,479.107,127.862,415.46z M197.122,218.98l21.084,21.09  c-34.439,39.106-56.542,89.291-60.183,144.47h-30.04C131.727,321.126,157.229,263.488,197.122,218.98z M581.151,197.003  l-20.395,20.395c-39.374-34.375-89.844-56.318-145.3-59.613v-29.255C478.869,132.044,536.531,157.331,581.151,197.003z   M400.187,454.55c-29.642,0-53.746-24.108-53.746-53.743c0-29.634,24.104-53.743,53.746-53.743  c29.625,0,53.749,24.109,53.749,53.743C453.936,430.441,429.813,454.55,400.187,454.55z M447.516,330.638  c-9.49-6.419-20.359-10.9-32.059-13.04V188.785c46.933,3.202,89.705,21.681,123.387,50.517L447.516,330.638z M384.538,317.654  c-11.63,2.183-22.448,6.708-31.886,13.14l-90.689-90.689c33.422-28.936,75.902-47.618,122.575-51.186V317.654z M330.705,352.563  c-6.574,9.447-11.285,20.274-13.579,31.977H189.012c3.554-46.664,22.207-89.14,51.107-122.566L330.705,352.563z M316.884,415.46  c2.087,11.919,6.608,23.018,13.13,32.672l-90.603,90.606c-28.814-33.668-47.294-76.398-50.503-123.278H316.884z M351.737,470.136  c9.663,6.772,20.792,11.568,32.801,13.824v128.643c-47.052-3.592-89.843-22.557-123.386-51.887L351.737,470.136z M415.457,484.016  c12.079-2.212,23.26-6.967,32.975-13.729l91.223,91.232c-33.801,29.236-76.886,47.991-124.197,51.219V484.016z M470.206,448.334  c6.608-9.706,11.181-20.869,13.285-32.874h129.356c-3.263,47.311-22.05,90.396-51.314,124.2L470.206,448.334z M483.251,384.54  c-2.314-11.788-7.075-22.685-13.735-32.179l91.31-91.314c29.368,33.569,48.33,76.398,51.901,123.494H483.251z M384.538,157.918  c-55.18,3.679-105.372,25.808-144.471,60.282l-21.033-21.034c44.568-39.688,102.163-65.01,165.504-68.611V157.918z M415.457,643.735  c55.837-3.313,106.615-25.528,146.111-60.313l20.446,20.441c-44.741,40.107-102.751,65.679-166.558,69.221V643.735z M643.733,384.54  c-3.694-55.61-26.088-106.157-60.994-145.394l20.343-20.355c39.994,44.538,65.55,102.25,69.311,165.749H643.733z" fill="#000000"/></svg>
